<svg id="Слой_1" data-name="Слой 1" xmlns="http://www.w3.org/2000/svg" viewBox="0 0 200 118.99"><defs><style>.cls-2{fill:#a1acb3}.cls-4{fill:#a2acb3}.cls-5{fill:#f96e01}.cls-6{fill:#f96f02}.cls-8{fill:#f97004}.cls-9{fill:#f96f03}.cls-10{fill:#a3aeb5}.cls-21{fill:#fdfdfd}.cls-27{fill:#fefcfb}.cls-28{fill:#fefbf8}</style></defs><path d="M100.27 0a63.25 63.25 0 0019 10.15c10.54 3.76 21.42 4.57 32.5 3.72A64.55 64.55 0 00173.15 9v54.1c0 8.68-5.71 14.4-14.39 14.6-4.61.1-8.88-1.18-13.09-2.82a74.79 74.79 0 00-29.92-5.11 57.36 57.36 0 00-8.16.89 2.47 2.47 0 01-1.4 0c4.44-5.68.92-12.39-4.24-13.51-.61-.13-.73-.47-.72-1v-4.11c0-.67.25-.9.83-1.09a8.26 8.26 0 00.11-15.95c-.66-.21-1-.47-.89-1.18a6.47 6.47 0 000-1.32c-.25-2.16-.17-4.07 2.62-4.5a2.31 2.31 0 001.3-.87 1.63 1.63 0 012.72-.23 1.64 1.64 0 00.46.27c2 .8 3 1.8 2.61 4.41-.56 3.55 2.2 7 5.74 8.08a1.26 1.26 0 011.09 1.56 24 24 0 000 3.17c.09 1-.21 1.42-1.22 1.73a8.17 8.17 0 00-5.52 9.59 8.33 8.33 0 009.14 6.52 8.43 8.43 0 007.31-8.4 8.25 8.25 0 00-5.8-7.73c-.92-.29-1.33-.68-1.18-1.63a3.22 3.22 0 000-.93c-.24-2.15 0-3.65 2.58-4.63 3.12-1.19 4.52-4.16 4.36-7.52a7.86 7.86 0 00-5.1-7.27 7.63 7.63 0 00-8.62 1.44c-1 .88-1.62.92-2.51.16a1.1 1.1 0 00-.35-.2c-2-.85-3.18-1.82-2.83-4.58.53-4.17-2.59-7.66-6.81-8.36C100.13 12.41 100 12 100 11V0z" fill="#f96e00"/><path class="cls-2" d="M0 94.33a3.14 3.14 0 012.55-1.81c.39 0 .83-.12.89.49s-.16.74-.67.75c-1.36 0-1.67.9-1.68 2s0 2.38 0 3.57c0 1 .44 1.79 1.62 1.86.36 0 .72 0 .71.54s-.45.53-.84.55A2.74 2.74 0 010 100.42z"/><path d="M100 82.82a32.57 32.57 0 00-10.12-9.08 54.86 54.86 0 00-15.37-5.88A78 78 0 0054.2 66a67 67 0 00-21 4.21c-1.74.65-3.43 1.4-5.12 2.15-.78.35-1.07.16-1-.66V4.55c0-.69.14-.84.83-.46a63.25 63.25 0 0016.62 6.36A59 59 0 0055.59 12a110.9 110.9 0 0018.12-1c4.11-.53 8.27-.76 12.32.49A17.5 17.5 0 0198.44 26c.33 2.42.1 4.84.26 7.25.07 1.09-.32 1.52-1.34 1.83a8.4 8.4 0 00-5.84 7.69 8.31 8.31 0 005.72 8c1.15.35 1.64.85 1.44 2a2.62 2.62 0 000 .79c.27 2.07.11 3.79-2.53 4.19a4 4 0 00-2.08 1.56c-.36.41-.71.62-1.25.28a88.32 88.32 0 00-3.75-2.24c-.55-.31-.65-.61-.51-1.26A8.07 8.07 0 0083 46.26a1.33 1.33 0 01-1-1.55 30.37 30.37 0 000-3.44c-.07-.87.28-1.24 1.08-1.48a8.3 8.3 0 005.82-8 8.55 8.55 0 00-5.21-7.63A8.34 8.34 0 0073.06 35.7a7.72 7.72 0 004.82 4c.92.26 1.35.7 1.18 1.66a2.91 2.91 0 000 .66c.19 2.25.1 4-2.7 5-3.15 1.18-4.73 5.18-4.16 8.28a8.48 8.48 0 006.9 6.93 7.39 7.39 0 007-2.17c.65-.64 1.1-.8 1.9-.24a36.31 36.31 0 003.4 2 .93.93 0 01.5 1.28c-1.44 5.1 2.85 9.7 7.23 10.18.68.08.92.29.91 1-.04 2.72-.04 5.45-.04 8.54z" fill="#d3d8e4"/><path class="cls-2" d="M45.39 95.06c-.83 2-1.65 4-2.48 6a2.32 2.32 0 01-3.82.5 25 25 0 00-3.24-3.37v3.24c0 .41 0 .83-.6.79s-.48-.42-.48-.77v-8.16c0-.35 0-.74.49-.76s.59.4.59.81v3.2c1.74-1.22 2.23-3.61 4.34-4.16l.33.31c-.94 1.13-1.86 2.29-2.83 3.39-.67.76-.9 1.33 0 2.17a51.12 51.12 0 013.42 3.86v-8.66c0-.43-.1-1 .61-.92s.46.55.46.91c0 2.15 0 4.29.22 6.47.9-2.18 1.82-4.35 2.7-6.54.22-.53.42-1 1.11-.87s.69.68.69 1.19v7.54c0 .46.15 1-.62 1.06s-.63-.57-.64-1v-6.15zm34.98 6.41v1.46c0 .32 0 .63-.47.65s-.69.06-.73-.36c-.07-.79-.62-.7-1.15-.7H74.7c-.63 0-1.4-.31-1.64.8-.09.43-.93.49-1.06-.13-.18-.8-.68-.66-1.18-.68-2.31-.13-3.16-1-3.17-3.31v-3.7a3 3 0 014.12-2.77.52.52 0 01.39.59c0 .34-.22.45-.52.46s-.8 0-1.19 0a1.92 1.92 0 00-1.72 2.45c.12.49.43.49.79.5h1.85c.44 0 .79 0 .81.62s-.29.67-.75.65a6.74 6.74 0 00-1.19 0c-.59.1-1.5-.46-1.52.82 0 1.45.41 2.24 1.5 2.37a1.14 1.14 0 00.26 0c2.82.18 3.05 0 3.05-2.82v-2.78c.08-2 1-2.94 3-2.93 3.1 0 2.48-.4 2.54 2.44 0 1.63.08 3.27 0 4.9-.06 1.09.3 1.55 1.38 1.42zm16.45-.33a1.92 1.92 0 00.85-1.86 21.68 21.68 0 01.21-4.48c.42-1.73 3.26-2.93 4.78-2 .39.23.28.62.28 1v7.69c0 .42.23 1.09-.58 1.06s-.48-.63-.48-1v-6.09c0-.55.56-1.52-.74-1.58S99 94.25 99 95.4c-.06.93 0 1.86 0 2.78a7.49 7.49 0 01-.23 2.36 2.49 2.49 0 01-1.13 1.46c-.49.28-1 .72-1.59.43s-.26-.94-.31-1.43a6.48 6.48 0 010-1.46c.19-1.22-.3-1.6-1.52-1.53-1.66.11-1.67 0-1.67 1.76v2c0 .46-.12.77-.66.75s-.62-.24-.61-.67c0-2.2-.09-4.42.06-6.61a2.67 2.67 0 013-2.73c1.62.1 2.5 1.17 2.52 3.12-.03 1.77-.04 3.56-.04 5.51z"/><path class="cls-4" d="M142 93.27c-1.34 2.74-2.69 5.46-4 8.2-.35.73-.76 1-1.65.66.5-1 1-2.08 1.49-3.09a2 2 0 00-.06-2.22c-.84-1.33-1.56-2.75-2.34-4.14 1.2-.31 1.19-.31 2.07 1.28.44.8.91 1.58 1.48 2.56.58-1.18 1.17-2.16 1.57-3.21.49-1.29 1.51-.85 2.35-.82s.47.86.56 1.36a3.69 3.69 0 010 1.05c-.19 1.26.28 1.67 1.58 1.65s1.62-.31 1.47-1.49a16.31 16.31 0 010-1.85c0-.47.13-.77.68-.75s.57.31.57.71v8.33c0 .37 0 .73-.54.74s-.69-.31-.7-.76v-2.65c0-.88-.18-1.09-1-1.1-2 0-2-.07-2 2v1.59c0 .53 0 .93-.64 1s-.6-.49-.6-.92v-8z"/><path class="cls-5" d="M150.69 114.34c.63 1.06 1.28 2.11 1.87 3.19.16.28.77.63.22 1a.9.9 0 01-1.27-.37c-.55-1-1.11-1.9-1.65-2.86-.26-.47-.49-1-1.17-.8s-.36.81-.37 1.23c0 2.88 0 2.88-2.9 2.87s-3.64-.71-3.64-3.68v-3.17a3.08 3.08 0 014.21-2.83c.33.12.35.33.36.6s-.16.48-.48.48h-1.45a1.48 1.48 0 00-1.48 1.27c-.3 1.5-.08 1.69 1.44 1.81.65 0 1.9-.64 1.88.58 0 1-1.2.33-1.85.51s-1.56-.44-1.52.93c0 1.67.37 2.26 1.64 2.34 2.66.17 2.66.17 2.66-2.54 0-1.68.05-3.36 0-5 0-.85.28-1.1 1.06-1a7.2 7.2 0 00.93 0c2.07 0 3.09.47 3.32 1.71.29 1.62.36 2.64-1.81 3.73z"/><path class="cls-2" d="M195.33 92.45h3.58c.42 0 .82 0 .78.62s-.44.44-.78.46a3.75 3.75 0 01-.67 0c-.9-.13-1.23.21-1.2 1.16.06 2.16 0 4.32 0 6.48 0 .43.23 1.1-.59 1s-.47-.64-.48-1v-6.48c0-1-.29-1.25-1.21-1.18s-1.94 0-2.91 0a1.94 1.94 0 00-1.66 2.59c.17.51.56.5 1 .5h1.85c.36 0 .59.14.59.54s-.26.53-.6.53h-1.46c-.46 0-1.42-.28-1.37.86s0 2.11 1.37 2.34a7.79 7.79 0 001.45 0c.45 0 .63.21.63.65s-.23.64-.66.62c-2.13-.11-3.94-.34-3.89-3.29v-3.84a2.48 2.48 0 012.78-2.66c1.12.08 2.3.1 3.45.1z"/><path class="cls-6" d="M169.77 112.82c1.34-1.17 1.07-3.57 3.41-3.79-.35.65-.66 1.33-1.07 2a9.14 9.14 0 00-1.81 6.56c.06.42.24 1.07-.59 1s-.53-.65-.48-1c.4-2.61-.62-4.79-1.9-6.95-.6-1-1.46-.66-2.21-.62s-.42.84-.43 1.26c-.05 2.12 0 4.24 0 6.36 0 .41.14.92-.57 1s-.67-.52-.67-1c0-2.08-.08-4.16 0-6.22.06-1.18-.28-1.63-1.45-1.4a4.79 4.79 0 01-.66 0c-.33 0-.6 0-.62-.47s.13-.64.6-.64h5.82c.59 0 .74.37 1 .75.51 1.03 1.08 2.11 1.63 3.16z"/><path class="cls-2" d="M59.14 97.48c0-2.42.37-2.93 2.67-3.4.55-.12.59-.42.6-.83s.25-.53.61-.53.64.12.61.52c-.06.76.39.8 1 .85A2.46 2.46 0 0167 96.18c.64 2.61-.21 4.21-2.75 5-.43.12-.58.3-.58.7s-.06.62-.48.65-.7-.13-.74-.56a.78.78 0 00-.67-.8c-2.37-.69-2.64-1.11-2.64-3.69z"/><path d="M159.49 97.16a2.71 2.71 0 011.11 3.19c-.34 1.32-1.41 1.69-2.6 1.86-2.72.38-2.82.3-2.82-2.39v-6.34c0-.81.27-1.11 1.07-1a16.24 16.24 0 001.71 0 2.49 2.49 0 012.61 1.62c.43 1.1.13 2.01-1.08 3.06zM52.21 95.07c-.87 2.11-1.76 4.22-2.6 6.35-.24.6-.52 1-1.24.88s-.57-.77-.57-1.23v-7.55c0-.46-.13-1 .65-1s.61.61.62 1.06a56 56 0 00.24 6.16c.74-1.81 1.42-3.63 2.25-5.39.32-.7.2-2.09 1.5-1.78s.48 1.42.51 2.14c.1 2.2 0 4.41 0 6.61 0 .4.17 1-.56 1s-.51-.6-.51-1v-6.16zm73.55 4.93q1.29-3.08 2.56-6.15c.09-.2.16-.41.24-.61.2-.57.67-.48 1.1-.47.61 0 .54.47.54.86v8.07c0 .41 0 .8-.58.83s-.7-.35-.7-.84a56.7 56.7 0 00-.24-6.35c-.85 2.05-1.71 4.1-2.54 6.16-.24.6-.43 1.19-1.27 1s-.49-.83-.49-1.29V93.8c0-.43-.21-1.08.61-1s.48.63.49 1v6.13zM5.83 99.9c.89-2.16 1.79-4.3 2.65-6.46.24-.58.46-1.06 1.21-.93s.62.75.62 1.24v7.54c0 .42.13.94-.56 1s-.68-.52-.68-1A54.8 54.8 0 008.82 95c-.87 2.09-1.74 4.18-2.59 6.28-.22.56-.4 1.07-1.17 1s-.53-.8-.53-1.25q-.06-3.63 0-7.28c0-.44-.31-1.23.57-1.19s.48.82.49 1.26v6.07zm16.26-4.8c-.88 2.1-1.78 4.19-2.61 6.31-.25.64-.56 1-1.25.85s-.44-.78-.45-1.19v-7.55c0-.4-.18-1 .53-1s.54.57.54 1a61 61 0 00.25 6.48c.9-2.18 1.81-4.36 2.67-6.55.24-.6.5-1 1.23-.88s.57.69.57 1.15v7.55c0 .45.17 1-.62 1s-.62-.6-.62-1v-6.08zm127.78 4.79c.91-2.19 1.83-4.37 2.71-6.57.24-.6.52-1 1.24-.86s.5.73.51 1.16v7.67c0 .42.11 1-.59.94s-.65-.48-.65-.94a56.84 56.84 0 00-.25-6.22c-.82 2-1.63 4-2.44 5.92a6 6 0 01-.44 1c-.26.41-.69.33-1.08.26s-.36-.45-.36-.74v-8.25c0-.34-.06-.74.47-.78s.62.35.61.78v6.59zm31.52-5.05l-2.36 5.7c-.19.45-.36.9-.58 1.33s-.65.4-1 .36-.47-.44-.47-.79v-8.21c0-.45.09-.79.64-.77s.61.39.6.82a63.09 63.09 0 00.22 6.41l2.49-6a9 9 0 01.38-.84c.23-.44.66-.38 1.05-.34s.42.38.42.68v8.34c0 .37 0 .73-.54.73s-.54-.46-.54-.85v-6.49z" fill="#a2adb3"/><path class="cls-6" d="M34.77 113.68v-4c0-.62.18-.86.82-.82.84.06 1.69 0 2.51.07a2.24 2.24 0 012.06 1.61 2.28 2.28 0 01-.61 2.65c-.49.38-.33.51 0 .84a2.65 2.65 0 01.56 2.93 2.39 2.39 0 01-2.2 1.64c-2.95.47-3.14.29-3.14-2.7z"/><path class="cls-8" d="M51.75 118.43c-.81-1.14-1.64-2.28-2.43-3.44a.91.91 0 00-1.09-.49c-.5.14-.3.58-.31.89v2.65c0 .43-.18.63-.64.62s-.52-.24-.52-.6v-8.59c0-.38.15-.58.54-.57 1 0 1.95 0 2.9.1a2.17 2.17 0 012 2c.16 1.18.09 2.36-1.16 3-.69.32-.68.58-.27 1.13.72 1 1.38 2 2.07 3.06-.2.7-.67.35-1.09.24zm32.46-4.79v-4c0-.42 0-.8.59-.78 1 0 2 0 2.9.07a2.1 2.1 0 011.93 2.17 51.46 51.46 0 010 5.27 2.18 2.18 0 01-2.29 2.24c-3.12.3-3.12.3-3.12-2.77z"/><path class="cls-9" d="M102.4 118.15c.48-1.4.1-2.85.2-4.28.06-.83 0-1.68.05-2.51a2.53 2.53 0 012.59-2.61 2.36 2.36 0 012.74 2.39c.15 2.28.09 4.58.12 6.87 0 .42-.15.66-.62.65s-.54-.34-.54-.71v-1.59c0-2.38-.1-2.44-2.52-2.18-.52.06-.68.25-.67.73 0 .8-.06 1.6 0 2.39.12 1.09-.25 1.56-1.36 1.36-.37-.07-.8.16-1.11-.21.31-.38.72-.31 1.12-.3z"/><path class="cls-10" d="M109.84 97.63v-4.1c0-.43.06-.79.62-.79s.64.35.64.79v2.64c0 .56.23.74.78.79 2.14.21 2.24.14 2.24-2v-1.44c0-.45.08-.78.64-.78s.61.37.61.8v8.19c0 .36 0 .74-.5.77s-.73-.24-.74-.71c0-.93-.06-1.86 0-2.78.08-1.31-.86-1-1.53-1s-1.61-.35-1.51 1v2.38c0 .47.09 1-.62 1.09s-.61-.59-.62-1c-.03-1.3-.02-2.57-.01-3.85z"/><path class="cls-5" d="M102.4 118.15c-.29.41-.73.24-1.1.3-.79-1.11-1.59-2.2-2.36-3.32-.29-.42-.59-.79-1.17-.65s-.34.72-.36 1.09v2.38c0 .37 0 .7-.54.71s-.56-.28-.56-.67v-8.46c0-.55.26-.66.73-.64s1 0 1.58 0c1.77 0 2.73.6 3 1.79.43 1.74-.07 2.77-1.83 3.68zm-41.6-3.67v3.31c0 .37.13.84-.51.87s-.57-.51-.58-.91v-2.65c0-.67-.14-.91-.86-.92-2.33-.05-2.33-.09-2.33 2.23V118c0 .39-.06.68-.57.66s-.53-.24-.53-.59c0-2.38-.06-4.77.08-7.15.09-1.48 1.22-2.2 2.83-2.14a2.35 2.35 0 012.47 2.39v.27z"/><path d="M126.26 114.48c0-1.15-.07-2.3 0-3.44a2.35 2.35 0 012.61-2.37c1.67 0 2.53.63 2.71 2.23.27 2.33.06 4.67.12 7 0 .42-.13.68-.6.68s-.58-.4-.58-.82v-6.22c0-1.12-.53-1.75-1.71-1.69s-1.45.85-1.46 1.82v6c0 .41.17.94-.55 1s-.58-.51-.59-.93v-3.17z" fill="#f97005"/><path class="cls-8" d="M119.63 113v-3.44c0-.39 0-.68.56-.67s.55.31.55.69v6.08c0 .71.07 1.42.83 1.81a1.56 1.56 0 002.33-1.53V110c0-.41-.3-1 .53-1.1s.62.58.62 1c0 2 .05 4 0 5.94s-.92 2.92-2.91 2.88a2.3 2.3 0 01-2.51-2.44c-.05-1.12 0-2.22 0-3.28z"/><path d="M166.62 97.26v-3.83c0-.75.25-1.05 1-1h1.72c1.72 0 2.71.87 2.81 2.34.14 2-.58 3.14-2.49 3.12s-1.95.76-1.78 2.12a11.85 11.85 0 010 1.46c0 .36 0 .72-.52.74s-.71-.29-.71-.75v-4.23zm-62.85.33v-3.82c0-.46-.13-1 .65-1s.55.63.59 1.07a6.91 6.91 0 010 .79c0 2 0 2 2 2.38a2.52 2.52 0 012.31 2.46 2.42 2.42 0 01-2 2.92 11 11 0 01-2.75.14c-.68 0-.77-.44-.77-1zm12.46-.08v-3.82c0-.43-.08-.93.6-1s.65.44.65.89a16.3 16.3 0 010 1.85c-.14 1.12.2 1.54 1.42 1.51 2 0 3 1.07 2.89 3.06a2.25 2.25 0 01-1.7 2.24 9.5 9.5 0 01-3.14.21c-.7 0-.71-.52-.71-1z" fill="#a3adb4"/><path d="M11.4 96.46v-.93c0-3.3.36-3.6 3.64-3.08.33 0 .61.09.63.5s-.27.58-.67.58h-.66c-2 0-1.74-.34-1.88 1.8-.1 1.38.65 1.32 1.59 1.35 2 .08 2.92 1.24 2.73 3.35a2.6 2.6 0 01-3.16 2.24 2.45 2.45 0 01-2.21-2.39 2.25 2.25 0 010-.26c0-1.05 0-2.1-.01-3.16z" fill="#a1acb2"/><path class="cls-6" d="M138.35 116.82c.57-2.24 1.14-4.49 1.72-6.73a9 9 0 01.25-.89c.15-.49.56-.35.88-.31.56.06.25.46.19.69-.72 2.77-1.46 5.54-2.18 8.31-.16.6-.52.7-1.07.71a.94.94 0 01-1.09-.85c-.67-2.64-1.41-5.27-2.1-7.91-.08-.31-.57-.76.12-1s.87.06 1 .68c.58 2.26 1.21 4.51 1.83 6.76a4.5 4.5 0 00.16.48z"/><path class="cls-5" d="M67.43 114.56v2.91c0 .44.35 1.19-.58 1.17s-.48-.71-.49-1.11v-5.69c0-1.42-.45-1.91-1.59-1.92-1.35 0-1.59.86-1.59 1.93v5.83c0 .38.24.95-.51 1s-.57-.52-.58-.92v-6.36c0-1.82.91-2.61 2.76-2.59s2.54.8 2.61 2.61a2.17 2.17 0 010 .26z"/><path class="cls-4" d="M80.38 101.49a14 14 0 01-.26-6.79c.27-1.62 2.73-2.68 4.16-1.93a.53.53 0 01.29.53.45.45 0 01-.49.49h-1.19a1.8 1.8 0 00-1.74 2.4c.11.56.46.55.87.56.66 0 1.32 0 2 .08a.6.6 0 01.57.74c0 .43-.35.44-.67.45s-.79 0-1.19 0c-.72 0-1.65-.34-1.58 1 .06 1.55.37 2.07 1.66 2.17a2.44 2.44 0 01.27 0c.56.13 1.57-.35 1.47.74-.07.92-1 .45-1.51.48a4 4 0 01-2.65-1z"/><path class="cls-2" d="M24.42 97.3v-4c0-.62.22-.88.84-.84s1.42 0 2.11.08c1.78.29 2.71 1.38 2.58 2.93-.15 1.78-1 2.6-3 2.52-1.16 0-1.62.29-1.45 1.47a11.3 11.3 0 010 1.84c0 .41.13 1-.58.93s-.49-.52-.49-.88c-.01-1.35-.01-2.69-.01-4.05z"/><path class="cls-8" d="M81.82 108.9h.93c.35 0 .42.24.42.53s-.08.54-.42.55a14.15 14.15 0 00-1.46.05 2 2 0 00-1.54 2.68c.16.39.45.37.75.37h2.12c.39 0 .55.18.55.56s-.19.55-.57.54a11.63 11.63 0 00-1.32 0c-.69.06-1.64-.41-1.58 1 .09 1.68.38 2.14 1.71 2.29.6.07 1.71-.51 1.69.56s-1.18.55-1.79.56a2.51 2.51 0 01-2.74-2.59 37.54 37.54 0 010-4.5c.11-1.81 1.14-2.59 3.25-2.6zm8.75 4.9v-1.32c0-2.81 1.15-3.85 3.91-3.59.36 0 .7 0 .71.53s-.27.57-.67.59a8.18 8.18 0 00-1.57.12 2 2 0 00-1.17 2.68c.2.38.52.27.8.28h2.12c.41 0 .49.27.48.62s-.17.47-.48.47h-1.59c-.52 0-1.44-.44-1.37.77.05 1-.18 2.23 1.31 2.48a10 10 0 001.45 0c.4 0 .68.09.69.58s-.27.54-.67.59c-2.65.32-3.93-.78-4-3.42z"/><path class="cls-2" d="M85.39 97.56v-4c0-.34-.08-.82.42-.83 1.26 0 2.57-.31 3.76.36a2.79 2.79 0 011.12 3.26 2.48 2.48 0 01-2.43 1.89c-1.79.19-1.79.19-1.79 2v1.19c0 .39.21 1-.51 1s-.56-.54-.56-1c-.02-1.22-.01-2.54-.01-3.87zm75.87-.31V95.8c0-2.61 1.05-3.56 3.69-3.35.39 0 .84 0 .81.58s-.5.48-.87.5c-2 .13-2.52.55-2.55 2 0 .66.19 1 .9.94a7.28 7.28 0 011.32 0c.46 0 1.19-.28 1.21.59s-.79.56-1.27.64a6.94 6.94 0 01-.79 0c-.6.06-1.45-.29-1.36.85s0 2.12 1.36 2.35a8.74 8.74 0 001.45 0c.44 0 .63.21.63.65s-.23.61-.66.62c-2.3.1-4-.76-3.88-3.28.04-.49.01-1.07.01-1.64z"/><path class="cls-6" d="M44.28 108.9a1.13 1.13 0 01.26 0c.39.12 1.05-.34 1.09.51s-.61.53-1 .59-.79 0-1.18.1a1.4 1.4 0 00-1.16 1.12c-.42 1.47-.12 1.87 1.4 1.87h1.45c.4 0 .52.19.52.57s-.18.54-.56.53a5.85 5.85 0 00-1.45 0c-.51.12-1.46-.56-1.44.68 0 1.06-.14 2.23 1.29 2.53a7.55 7.55 0 001.58.06c.36 0 .57.11.58.53s-.13.59-.59.65c-2.59.37-3.95-.78-4-3.39v-3.18c.04-2.28.93-3.16 3.21-3.17z"/><path class="cls-9" d="M155.91 108.8a1.67 1.67 0 01.39.06c.48.18 1.38-.16 1.28.8s-.86.35-1.31.3a1.5 1.5 0 00-1.83 1.11c-.29 1 .22 1.49 1.08 1.79.41.15.84.26 1.24.44a2.83 2.83 0 11-2.5 5.08.49.49 0 01-.29-.73c.15-.45.36-.46.79-.35.92.24 1.85.39 2.31-.81s0-1.81-1.53-2.37c-1.84-.66-2.46-1.5-2.26-3.05a2.49 2.49 0 012.63-2.27zm-126.73.07a4.06 4.06 0 011.48.36c.39.15.38.39.23.73s-.25.55-.67.35a3.81 3.81 0 00-1-.3 1.33 1.33 0 00-1.53 1 1.24 1.24 0 00.53 1.71c.39.2.8.36 1.2.53a2.78 2.78 0 011.58 3.88 2.67 2.67 0 01-3.79 1.25c-.28-.12-.73-.14-.49-.71s.35-.54.87-.4c1.65.44 2.38 0 2.52-1.26s-.77-1.53-1.64-1.9c-1.72-.72-2.36-1.85-1.87-3.39a2.49 2.49 0 012.58-1.85z"/><path d="M73 114.69v-2.78a3.12 3.12 0 014.21-3 .5.5 0 01.4.57c0 .3-.1.52-.43.53s-.71 0-1.06 0c-1.6.06-2.29 1-2 2.57.11.48.39.51.76.51H77a.5.5 0 01.57.56c0 .39-.17.57-.55.55a2.43 2.43 0 00-.27 0c-.85.11-2-.43-2.48.27s-.13 1.7-.14 2.58a2.64 2.64 0 010 .4c-.09.45.3 1.19-.59 1.2s-.54-.75-.56-1.19c.02-.92.02-1.85.02-2.77z" fill="#f97107"/><path class="cls-10" d="M172.69 97.22c0-.75-.05-1.5 0-2.25a2.53 2.53 0 012.67-2.52c.37 0 .73 0 .74.52s-.18.55-.56.56c-1.36 0-1.65.91-1.62 2.07s0 2.47 0 3.71c0 1 .3 1.66 1.41 1.66.55 0 .85.18.77.77s-.62.51-1 .46a2.73 2.73 0 01-2.41-2.72c-.04-.75 0-1.48 0-2.26z"/><path d="M185.66 97.78c0-1-.06-1.94 0-2.91s-.17-1.54-1.28-1.34a3.13 3.13 0 01-.53 0c-.36 0-.58-.14-.57-.54s.24-.53.59-.53h4.64c.35 0 .58.14.58.54s-.24.53-.59.53a6.94 6.94 0 01-.79 0c-.76-.09-1 .23-1 1v6.62c0 .42.24 1.1-.55 1.08s-.5-.7-.51-1.12c-.02-1.11.01-2.22.01-3.33z" fill="#a0abb2"/><path class="cls-8" d="M109.24 113.72v-4.09c0-.45 0-.77.63-.74s.48.4.48.74v6.86c0 .83.25 1.08 1 1s1.41 0 2.11 0c.37 0 .57.13.58.53s-.13.65-.6.64h-3.56c-.67 0-.67-.4-.66-.87z"/><path class="cls-2" d="M30.24 97.37v-2.24a2.6 2.6 0 012.61-2.61c.4 0 .81-.07.84.54s-.24.69-.71.7c-1.28 0-1.64.85-1.66 1.92s0 2.38 0 3.56a1.7 1.7 0 001.66 2c.36 0 .72 0 .71.54s-.45.54-.84.55a2.47 2.47 0 01-2.58-2.3c-.07-.87 0-1.75 0-2.63z"/><path d="M51.75 118.43c.37 0 .8.12 1.07-.29.5-.3.25-.8.26-1.19v-7c0-.41-.29-1 .55-1.07s.63.68.63 1.13v7c0 1.73 0 1.73-1.72 1.67-.25-.02-.6.11-.79-.25z" fill="#f97b18"/><path d="M33.41 113.83v4c0 .37.11.83-.52.87s-.68-.4-.68-.86v-8.08c0-.47 0-.88.67-.85s.53.47.53.85c.01 1.34 0 2.7 0 4.07zm126.96-.07v3.95c0 .46 0 .91-.66.88s-.54-.45-.54-.85v-8c0-.45 0-.9.65-.87s.55.45.55.84v4.05z" fill="#f97a16"/><path d="M122.25 97.51v-4c0-.42 0-.82.61-.79s.5.4.5.76v8.18c0 .41 0 .83-.6.79s-.5-.52-.5-.89c-.01-1.32-.01-2.69-.01-4.05z" fill="#a1abb2"/><path class="cls-5" d="M134.21 113.68v4.09c0 .42 0 .81-.59.77s-.51-.38-.51-.73v-8.19c0-.43 0-.79.61-.76s.5.38.5.72z"/><path d="M50.81 91.92a3.64 3.64 0 01-.81-.24c-.44-.23-1.19-.37-1-1 .22-.8.81-.48 1.36-.16a1.24 1.24 0 001.37-.16c.47-.35.86-.25 1.1.21s-.28.65-.57.84a2.56 2.56 0 01-1.45.51z" fill="#a5b0b6"/><path d="M127.14 92a2.08 2.08 0 01-1.57-.49c-.25-.2-.71-.33-.32-.78.24-.27.49-.69.94-.24a1.23 1.23 0 001.77.08c.46-.36.79-.32 1.06.15s-.22.68-.5.89a2 2 0 01-1.38.39z" fill="#a4aeb5"/><path class="cls-21" d="M77.94 97.58v2.64c0 .88-.23 1.34-1.2 1.25-.74-.07-1.67.19-2.18-.17s.06-1.27 0-2a30.37 30.37 0 010-3.44c.07-1 .32-2 1.69-2.11 1.55-.1 1.62-.06 1.63 1.53z"/><path d="M94.06 96.92c-1 .12-1.64 0-1.54-1.25s.52-2 1.56-2 1.6.81 1.67 2.13-.94 1.06-1.69 1.12z" fill="#fcfcfc"/><path d="M148.3 111.61c.07-.81-.38-1.8 1.1-1.68s2.06.5 2.09 1.62-.64 1.7-2.22 1.75-.73-1.13-.97-1.69z" fill="#fefcfa"/><path d="M62.56 97.54a11.61 11.61 0 010 1.18c0 .44.25 1-.49 1.18a1.3 1.3 0 01-1.55-.73 4.1 4.1 0 01-.09-3.08 1.33 1.33 0 011.59-.9c.77.12.5.8.54 1.29s0 .7 0 1.06z" fill="#fbfbfc"/><path class="cls-21" d="M66 97.61a3.92 3.92 0 01-.49 1.83 1.33 1.33 0 01-1.43.45c-.66-.12-.42-.69-.43-1.08v-2.5c0-.4-.24-1 .38-1.12a1.45 1.45 0 011.5.61 3.07 3.07 0 01.47 1.81z"/><path d="M156.29 99.36c0-.74-.36-1.72 1.09-1.63s2.22.55 2.22 1.65-.68 1.51-2.06 1.62-1.35-.7-1.25-1.64z" fill="#fcfcfd"/><path d="M156.45 95.07c-.08-.91-.15-1.7 1.12-1.55 1 .12 1.87.17 1.89 1.47s-.75 1.45-1.8 1.54c-1.29.1-1.34-.61-1.21-1.46z" fill="#fefefe"/><path class="cls-27" d="M35.87 115.84c0-.88-.32-1.81 1.13-1.67s2.17.59 2.14 1.73-.69 1.57-2.21 1.64-.87-1.11-1.06-1.7z"/><path class="cls-28" d="M35.86 111.57c.07-.74-.36-1.69 1-1.59s2.21.5 2.23 1.51-.77 1.54-2.26 1.63-.83-.91-.97-1.55z"/><path d="M47.88 111.73c.2-.69-.5-1.83 1-1.74s2.16.53 2.13 1.72-.71 1.61-2.22 1.66-.67-1.06-.91-1.64z" fill="#fefdfb"/><path d="M85.42 113.69a23.62 23.62 0 010-2.38c0-.46-.45-1.29.57-1.29s2-.25 2.34.94a12 12 0 010 5.62c-.28 1.22-1.46.89-2.34.9s-.55-.82-.59-1.28c-.03-.83.02-1.67.02-2.51z" fill="#fefefd"/><path d="M105.33 113.1c-.78 0-1.69.32-1.6-1.06s.47-2.09 1.57-2.12 1.58.61 1.66 2.15-1.03.87-1.63 1.03z" fill="#fefbf9"/><path class="cls-28" d="M97.39 111.61c.18-.58-.55-1.72 1-1.63s2.16.52 2.17 1.69-.65 1.7-2.16 1.69c-1.01 0-1.01 0-1.01-1.75z"/><path class="cls-27" d="M58.05 113.1c-.68-.09-1.66.41-1.56-1s.53-2.19 1.68-2.16c1.34 0 1.43 1 1.55 2 .18 1.53-.88 1.06-1.67 1.16z"/><path d="M168.92 96.77c-1.63.18-.94-1.11-1-1.87s-.11-1.47 1.08-1.39c1.36.11 2 .56 2.08 1.66s-.63 1.6-2.16 1.6z" fill="#fcfdfd"/><path class="cls-21" d="M105 99.23c0-.49-.2-1.32 1.11-1.21s2 .59 2.07 1.68-.6 1.58-2.07 1.57c-1.11-.01-1.11-.01-1.11-2.04zm13.59 2.04c-1.67.2-1-1.09-1.1-1.86s-.12-1.47 1.08-1.39c1.41.09 2.17.62 2.1 1.78-.07 1.31-.98 1.51-2.08 1.47zM13.42 97.75c1.49 0 2.24.6 2.28 1.71a1.52 1.52 0 01-1.56 1.72c-1.09.1-1.65-.68-1.65-2.15-.01-.73-.11-1.5.93-1.28zM26.64 97c-1.79.15-1-1.22-1.11-2-.08-.6-.26-1.4.83-1.4 1.64 0 2.36.54 2.33 1.79S28.11 97 26.64 97zm59.81-1.55c.16-.71-.42-1.73 1-1.67s2.2.55 2.2 1.66-.73 1.73-2.26 1.75-.63-1.19-.94-1.74z"/></svg>