<svg id="Слой_1" data-name="Слой 1" xmlns="http://www.w3.org/2000/svg" xmlns:xlink="http://www.w3.org/1999/xlink" viewBox="0 0 477.85 536.93"><defs><style>.cls-1{fill:none;}.cls-2{clip-path:url(#clip-path);}.cls-3{clip-path:url(#clip-path-2);}.cls-4{opacity:0.15;}.cls-5{fill:#fff;}</style><clipPath id="clip-path"><rect class="cls-1" x="-54.92" y="-534.02" width="570.53" height="409.37" rx="25.43"/></clipPath><clipPath id="clip-path-2"><rect class="cls-1" x="-111.29" y="-800.77" width="747.79" height="715.56"/></clipPath></defs><g class="cls-2"><g class="cls-3"><image width="1440" height="900" transform="translate(-635.03 -1229.56) scale(1.61)" xlink:href="../../../../../../%D0%A1%D0%BD%D0%B8%D0%BC%D0%BE%D0%BA%20%D1%8D%D0%BA%D1%80%D0%B0%D0%BD%D0%B0%202021-03-30%20%D0%B2%2021.35.53.png"/></g></g><g class="cls-4"><path class="cls-5" d="M470.6,91c-9.43,0-25.39-1.42-31.77-10.49-8.93-12.7,3.4-29.81,8.66-37.11A70,70,0,0,1,463.65,27.5l2.05,1.69A67.31,67.31,0,0,0,450.12,44.5c-5,7-16.8,23.31-8.65,34.9s35.73,9,36,9l.38,2.29C477.49,90.73,474.64,91,470.6,91Z"/><path class="cls-5" d="M401.85,166.25a28.24,28.24,0,0,1-8.43-1.22c-13.35-4.11-18.76-16.86-21.07-22.31-8-18.86-.55-45.89,22.14-80.33C411,37.31,431.08,15.48,438.94,7.26l2.42,1.36C427.16,23.47,357.25,99.69,375.2,142c2.18,5.14,7.29,17.18,19.33,20.89,11.23,3.46,24.1-1.72,47.77-11.94A287.45,287.45,0,0,0,471,136.63l1.79,1.85a290.64,290.64,0,0,1-29,14.48C426,160.64,413,166.25,401.85,166.25Z"/><path class="cls-5" d="M350,236.05c-7.9,0-16.64-.87-23.19-3.89-31.36-14.46-21-82.47-3.55-126.14C338.67,67.39,366,32.5,404.45,2.33L406.59,4c-38.12,29.9-65.19,64.47-80.44,102.74-16.63,41.72-27.42,109.82,2.22,123.49,12.24,5.64,33.21,3.15,39.35,2.25,15.58-2.27,26.27-7.79,34.08-11.82,23.51-12.14,47.75-25.85,72-40.75l1.87,1.8c-24.35,14.94-48.65,28.69-72.24,40.86-8,4.15-19,9.82-35.19,12.18A131.7,131.7,0,0,1,350,236.05Z"/><path class="cls-5" d="M310.47,300.66a62.83,62.83,0,0,1-12.1-1.17A69,69,0,0,1,260,277.41c-7.22-8.37-14.27-21.56-11.79-55.91,2.76-38.13,15-66.93,17.4-72.32C291.87,90.66,333.53,35.82,363.86.11l2.51,1.26C336.14,37,294.61,91.64,268.42,149.93c-2.4,5.34-14.5,33.87-17.24,71.7-2.44,33.67,4.34,46.45,11.3,54.51a66,66,0,0,0,36.63,21.12c22.29,4.33,42.57-4.73,70.95-19.05a1142.76,1142.76,0,0,0,100.87-57.53l1.92,1.77a1145,1145,0,0,1-101.14,57.69C347.72,292.24,329.36,300.66,310.47,300.66Z"/><path class="cls-5" d="M279,346.78a97.82,97.82,0,0,1-18.16-1.68c-11.31-2.13-32.46-8.14-47.05-24.47-15.49-17.32-15-37.72-14.7-48.68,1.69-66.58,21-115,23.3-120.32l-.14,0C244.39,99.87,275.52,49.71,314.79,2.52l2.53,1.24c-39.14,47-70.16,97-92.18,148.56-.22.5-21.26,50.35-23,119.68-.37,14.81.38,31.9,14.17,47.33,14,15.7,34.4,21.48,45.29,23.53,28,5.27,52.23-3.63,68.26-9.52A1284.72,1284.72,0,0,0,471.06,271l1.66,1.92a1287.84,1287.84,0,0,1-141.59,62.49C318.26,340.15,300.23,346.78,279,346.78Z"/><path class="cls-5" d="M270.33,395.8q-7.24,0-14.94-.26c-35.79-1.23-48.89-6.19-55.63-9.81-16.89-9.08-28.09-24.55-35.23-48.69-10.21-34.5-9.12-76.62,3.24-125.19a460.72,460.72,0,0,1,28.55-79.48A649.69,649.69,0,0,1,277.26,2.54l2.56,1.2c-32.61,41-59.76,84.5-80.67,129.4C148.44,242,160.09,311.64,167.46,336.52c7,23.56,17.78,38.59,34,47.32,6.44,3.46,19,8.19,54,9.39A424.81,424.81,0,0,0,336,388.46a794.45,794.45,0,0,0,138.2-35.92l1.26,2.09a798,798,0,0,1-138.84,36.09A422.93,422.93,0,0,1,270.33,395.8Z"/><path class="cls-5" d="M471.85,446c-48.78-1.06-98.31-2.67-147.22-4.81-24.2-1.05-69.23-3-124.47-16.85-29.6-7.42-50.68-15.3-64.29-31.68-10.35-12.46-13.14-25.84-14.66-46.16-3.68-49.16,4.17-88.82,5.79-96.27,15.21-70.32,22.85-105.62,40.47-141.83C185.67,71,210,35.35,239.79,2.48l2.47,1.32c-29.65,32.71-53.87,68.15-72,105.36-17.53,36-25.15,71.22-40.33,141.4-1.61,7.41-9.42,46.84-5.76,95.76,1.5,19.93,4.2,33,14.2,45.05,13.13,15.8,33.72,23.47,62.69,30.72,54.87,13.75,99.65,15.7,123.71,16.75,48.88,2.13,98.38,3.75,147.13,4.8Z"/><path class="cls-5" d="M430.58,529.72a431.2,431.2,0,0,0-109.23-45.43c-22.21-5.77-41.36-8.86-59.89-11.84-33.74-5.43-62.89-10.12-99.2-29.1-19.12-10-32.94-17.23-46.54-31.48-17.45-18.29-33.64-46.95-23.37-176,4-49.89,6-74.93,11.58-93.8C119.43,90,150.61,42.18,196.59,0l2.3,1.48c-45.67,41.9-76.64,89.39-92,141.13-5.56,18.69-7.54,43.67-11.5,93.43-11.06,139,10.13,161.2,22.79,174.47,13.3,13.93,26.93,21.06,45.81,30.93,35.82,18.73,64.7,23.38,98.13,28.76,18.61,3,37.85,6.09,60.23,11.9A434.53,434.53,0,0,1,432.4,527.89Z"/><path class="cls-5" d="M341.14,536.93a592.23,592.23,0,0,0-63.32-31.12c-32.65-13.72-55-19.81-74.77-25.18-22.76-6.2-40.73-11.09-64-25.33C106,435,82.56,410.63,69.35,382.78c-6.51-13.73-7.22-21.72-8.95-41-1-11.44-2.41-27.1-5.56-50.48-3.9-29-6.79-42.38-9.1-53.17a226.64,226.64,0,0,1-5.34-35.68c-3.55-44.62-6.12-76.85,8.73-113.23C62.24,57.07,87.33,27,121.68,2.3l2,1.68C89.75,28.43,65,58.14,52,89.9c-14.68,36-12.12,68-8.59,112.39a225.72,225.72,0,0,0,5.3,35.45C51,248.56,53.91,262,57.82,291.06c3.16,23.42,4.56,39.1,5.58,50.55,1.75,19.62,2.4,27,8.77,40.38,13,27.44,36.16,51.5,68.79,71.5,22.84,14,40.6,18.84,63.09,25,18.87,5.14,42.35,11.53,75.21,25.34a593,593,0,0,1,63.66,31.29Z"/><path class="cls-5" d="M277.59,532.09A390.94,390.94,0,0,0,223,503.41c-27.55-11.83-45.3-15.82-61-19.35-14.47-3.26-27-6.07-43-14.3-35-17.92-62.85-49.69-78.52-89.44-5-12.74-6.46-21.72-8.26-33.09a381.88,381.88,0,0,0-12-53.4c-5-16.95-10.78-33.89-17.29-50.32l2.87-.68c6.53,16.5,12.37,33.48,17.35,50.49a383,383,0,0,1,12,53.63c1.86,11.7,3.2,20.15,8.15,32.7,15.47,39.24,42.93,70.56,77.31,88.19,15.69,8,28,10.8,42.21,14,15.81,3.56,33.74,7.59,61.58,19.54a394.15,394.15,0,0,1,55.06,28.92Z"/><path class="cls-5" d="M243.39,534.68c-26.21-7.48-53.34-13.93-80.65-19.16-26.92-5.16-45.43-7.52-60.3-9.41-19.57-2.5-31.37-4-44-9.93C22.78,479.46,3.12,437.15,0,370.43l3-.09c3.08,65.9,22.26,107.58,57,123.87,12.13,5.69,23.72,7.17,42.93,9.62,14.14,1.8,33.5,4.27,60.54,9.45,27.41,5.25,54.65,11.73,81,19.24Z"/></g></svg>