<svg id="Слой_1" data-name="Слой 1" xmlns="http://www.w3.org/2000/svg" viewBox="0 0 298.97 298.97"><defs><style>.cls-1{fill:#fff;}</style></defs><path class="cls-1" d="M54.46,174.55H78.89v6.61H63.08v6.56H77.45V194H63.08v7.52H78.89v6.61H54.46Z"/><path class="cls-1" d="M81.72,174.55h8.62V201H104.7v7.09h-23Z"/><path class="cls-1" d="M106.33,174.55h24.43v6.61H115v6.56h14.37V194H115v7.52h15.81v6.61H106.33Z"/><path class="cls-1" d="M133.59,174.55h8.81l9.29,17,9.2-17h8.62v33.53h-8.62V188.87l-6.95,12.74h-4.79l-6.94-12.74v19.21h-8.62Z"/><path class="cls-1" d="M173.53,174.55H198v6.61H182.15v6.56h14.37V194H182.15v7.52H198v6.61H173.53Z"/><path class="cls-1" d="M200.78,174.55h7.62l13,18.68V174.55h9.1v33.53h-8.14L209.4,189.4v18.68h-8.62Z"/><path class="cls-1" d="M242.4,181.64H232.11v-7.09h29.21v7.09H251v26.44H242.4Z"/><path class="cls-1" d="M53.06,95.47H83.31q13,0,19.63,6.24t6.65,17a22.6,22.6,0,0,1-3.52,12.75A20.21,20.21,0,0,1,95.5,139.2l16.07,25.69H91.74l-13.49-23.8H70.91v23.8H53.06ZM79.34,127.2c4.76,0,8-.71,9.77-2.13s2.63-3.55,2.63-6.4-.88-5-2.63-6.39-5-2.14-9.77-2.14H70.91V127.2Z"/><path class="cls-1" d="M107.4,95.47H158v13.68H125.26v13.59H155v12.89H125.26V151.2H158v13.69H107.4Z"/><path class="cls-1" d="M194.68,151.6H171.47l-4.76,13.29H149.85l25.29-69.42H193l25.29,69.42H199.44Zm-18.15-13.69h13.09l-6.54-20.63Z"/><path class="cls-1" d="M211.64,95.47h17.85v54.74h29.75v14.68h-47.6Z"/><path class="cls-1" d="M149.49,299C67.06,299,0,231.91,0,149.49S67.06,0,149.49,0,299,67.06,299,149.49,231.91,299,149.49,299Zm0-278.15A128.81,128.81,0,0,0,20.82,149.49c0,70.94,57.72,128.66,128.67,128.66A128.81,128.81,0,0,0,278.15,149.49C278.15,78.54,220.43,20.82,149.49,20.82Z"/></svg>